<svg xmlns="http://www.w3.org/2000/svg" viewBox="0 0 100 115">
  <defs>
    <clipPath id="pin">
      <path d="M50 4C26 4 7 23 7 47C7 71 50 111 50 111C50 111 93 71 93 47C93 23 74 4 50 4Z"/>
    </clipPath>
    <clipPath id="circ">
      <circle cx="50" cy="46" r="31"/>
    </clipPath>
    <clipPath id="qtl"><rect x="0" y="0" width="50" height="46"/></clipPath>
    <clipPath id="qtr"><rect x="50" y="0" width="50" height="46"/></clipPath>
    <clipPath id="qbl"><rect x="0" y="46" width="50" height="65"/></clipPath>
    <clipPath id="qbr"><rect x="50" y="46" width="50" height="65"/></clipPath>
  </defs>

  <g clip-path="url(#pin)">
    <rect width="100" height="115" fill="#FC478E"/>
    <path d="M7 47A43 43 0 0 1 50 4L50 15A32 32 0 0 0 18 47Z" fill="#984EFD"/>
    <path d="M50 4A43 43 0 0 1 93 47L82 47A32 32 0 0 0 50 15Z" fill="#4DB9CA"/>
    <circle cx="50" cy="46" r="31" fill="white"/>

    <g clip-path="url(#circ)">
      <g clip-path="url(#qtl)">
        <rect x="0" y="0" width="50" height="46" fill="#984EFD"/>
        <line x1="25" y1="44" x2="25" y2="24" stroke="#5a8a00" stroke-width="2" stroke-linecap="round"/>
        <path d="M25 38 Q14 28 20 18 Q28 28 25 38Z" fill="#9CCC44"/>
        <path d="M25 34 Q36 24 30 16 Q22 26 25 34Z" fill="#7ab520"/>
      </g>
    </g>

    <g clip-path="url(#circ)">
      <g clip-path="url(#qtr)">
        <rect x="50" y="0" width="50" height="46" fill="#FFF5EE"/>
        <polygon points="60,44 72,22 84,44" fill="#FF7D1F"/>
        <polygon points="69,44 72,28 82,44" fill="#FF9A4A"/>
      </g>
    </g>

    <g clip-path="url(#circ)">
      <g clip-path="url(#qbl)">
        <rect x="0" y="46" width="50" height="65" fill="#4DB9CA"/>
        <g stroke="#984EFD" stroke-linecap="round" stroke-linejoin="round">
          <circle cx="22" cy="53" r="3.5" fill="#984EFD" stroke="none"/>
          <circle cx="30" cy="62" r="3.5" fill="#984EFD" stroke="none"/>
          <circle cx="18" cy="70" r="3.5" fill="#984EFD" stroke="none"/>
          <line x1="22" y1="56" x2="22" y2="67" stroke-width="2"/>
          <line x1="22" y1="67" x2="18" y2="70" stroke-width="2"/>
          <line x1="22" y1="53" x2="27" y2="59" stroke-width="2"/>
          <line x1="30" y1="62" x2="30" y2="73" stroke-width="2"/>
        </g>
      </g>
    </g>

    <g clip-path="url(#circ)">
      <g clip-path="url(#qbr)">
        <rect x="50" y="46" width="50" height="65" fill="#FC478E"/>
        <circle cx="62" cy="56" r="4.5" fill="white"/>
        <path d="M55 74Q55 63 62 63Q69 63 69 74Z" fill="white"/>
        <circle cx="76" cy="56" r="4.5" fill="white"/>
        <path d="M69 74Q69 63 76 63Q83 63 83 74Z" fill="white"/>
        <circle cx="69" cy="54" r="5.5" fill="white"/>
        <path d="M60 76Q60 64 69 64Q78 64 78 76Z" fill="white"/>
      </g>
    </g>

    <g clip-path="url(#circ)">
      <line x1="50" y1="15" x2="50" y2="77" stroke="white" stroke-width="2.5"/>
      <line x1="19" y1="46" x2="81" y2="46" stroke="white" stroke-width="2.5"/>
    </g>

  </g>
</svg>
