<svg width="626" height="435" viewBox="0 0 626 435" fill="none" xmlns="http://www.w3.org/2000/svg">
<path d="M620.857 55.777C547.768 0.600021 435.452 1.10021 351.347 36.5976C258.424 75.682 198.304 152.26 154.514 227.346C124.711 278.499 100.106 331.212 81.2804 385.498C76.2561 400.134 104.013 407.024 109.037 392.389C125.321 346.609 145.07 301.87 168.853 258.66C189.597 220.612 213.224 183.589 242.595 149.568C295.341 88.5179 372.258 38.0773 467.176 35.2336C514.92 34.0571 564.109 44.8217 599.503 71.9049C605.21 76.3346 613.92 77.0305 619.856 72.4183C625.779 68.282 626.564 60.2066 620.857 55.777Z" fill="#FF7D1F"/>
<path d="M4.94185 320.717C29.1786 351.804 52.822 383.353 76.4652 414.901C82.0883 422.662 95.463 423 101.47 415.532C109.875 405.268 120.583 396.014 132.987 388.708C147.159 380.494 164.167 375.209 177.77 366.505C184.263 362.859 183.328 353.788 178.19 349.849C172.495 344.943 163.748 345.675 157.837 349.335C143.653 358.025 126.063 363.296 111.879 371.986C97.6946 380.675 86.3696 391.342 76.7653 403.004C84.9065 403.21 93.6291 403.43 101.77 403.635C78.1271 372.086 53.9026 340.523 30.2473 309.45C20.6857 296.352 -5.20126 307.604 4.94185 320.717Z" fill="#FF7D1F"/>
</svg>
