<svg xmlns="http://www.w3.org/2000/svg" viewBox="0 0 35.33 43.14"><defs><style>.cls-1{fill:#9ccc44;}</style></defs><g id="Capa_2" data-name="Capa 2"><g id="Capa_2-2" data-name="Capa 2"><path class="cls-1" d="M19.31,0c13,7.75,18.61,21.18,14.89,31-2.42,6.42-8.21,9.78-11,11.13a17.92,17.92,0,0,1-12.41-.29C3.55,38.72-.95,29.94.17,20.14a21.55,21.55,0,0,1,6.62,1.3A26.55,26.55,0,0,1,13,24.89a65.91,65.91,0,0,1,7.2,5.61c-1.45-1.57-4.24-4-5.79-7.93a21.88,21.88,0,0,1-.83-13.65A18.41,18.41,0,0,1,19.31,0Z"/></g></g></svg>