<svg width="417" height="532" viewBox="0 0 417 532" fill="none" xmlns="http://www.w3.org/2000/svg">
<path d="M92.2293 17.1142C140.063 62.8632 178.939 117.931 206.432 178.274C234.202 239.028 251 304.781 255.158 371.28C257.53 408.513 255.918 446.04 249.836 482.695C248.032 493.767 265.227 497.123 267.031 486.051C277.845 417.833 274.702 347.962 259.682 280.415C244.528 213.555 216.742 149.227 178.613 92.1634C157.024 60.1043 132.079 30.6033 104.124 3.72767C95.5684 -3.65394 84.085 9.45579 92.2293 17.1142Z" fill="#984EFD"/>
<path d="M337.232 376.946C320.967 425.536 290.593 469.588 250.682 502.139C255.228 504.455 259.841 506.426 264.387 508.741C258.274 465.065 245.912 422.312 227.243 382.612C225.23 378.292 220.751 375.633 216.154 377.235C211.968 378.56 208.764 384.003 210.777 388.323C228.616 426.791 240.97 467.757 247.008 509.99C247.997 515.895 255.169 521.222 260.713 516.592C304.113 480.794 336.534 433.572 354.494 379.958C356.055 375.621 351.702 370.488 347.575 369.682C342.349 369.02 338.86 372.266 337.232 376.946Z" fill="#984EFD"/>
</svg>
