<svg width="544" height="553" viewBox="0 0 544 553" fill="none" xmlns="http://www.w3.org/2000/svg">
<path d="M22.7888 183.48C35.4725 251.532 97.3228 314.066 161.081 343.58C231.458 376.256 302.465 372.114 363.773 359.581C405.524 351.026 445.199 338.797 482.486 322.561C492.51 318.156 480.709 299.244 470.684 303.65C439.017 317.113 405.965 328.127 371.461 336.131C341.187 343.29 309.841 348.332 276.836 348.684C217.586 349.294 150.348 331.163 96.8753 279.508C70.1048 253.401 48.4725 220.6 42.511 187.467C41.5808 182.094 37.1489 176.882 31.603 175.838C26.3 174.566 21.8586 178.107 22.7888 183.48Z" fill="#984EFD"/>
<path d="M492.181 397.162C494.328 368.291 497.028 339.525 499.729 310.759C500.5 303.79 493.332 296.148 486.328 296.471C476.62 296.832 466.152 295.408 455.72 292.076C443.868 288.203 431.914 281.301 420.131 277.988C414.759 276.156 410.767 281.15 411.628 285.963C412.315 291.564 417.476 296.093 422.536 297.593C434.632 301.238 446.896 308.472 458.992 312.117C471.087 315.762 482.596 316.835 493.656 316.455C489.293 311.803 484.618 306.819 480.255 302.167C477.554 330.934 475.164 360.032 472.706 388.57C471.445 400.371 491.232 409.295 492.181 397.162Z" fill="#984EFD"/>
</svg>
