<svg width="496" height="367" viewBox="0 0 496 367" fill="none" xmlns="http://www.w3.org/2000/svg">
<path d="M480.43 166.211C432.423 197.674 378.296 219.746 321.938 231.17C265.179 242.747 206.343 244.077 149.349 234.583C117.429 229.304 86.04 220.602 56.2627 208.293C47.2617 204.603 41.0632 218.474 50.0643 222.163C105.582 244.644 165.226 255.655 225.23 256.179C284.68 256.454 344.461 245.561 400.129 224.511C431.437 212.542 461.239 197.239 489.413 178.878C497.323 173.094 488.493 160.828 480.43 166.211Z" fill="#9CCC44"/>
<path d="M128.509 302.816C90.6399 279.57 59.3648 245.292 39.6706 205.207C36.8254 208.595 34.2576 212.106 31.4124 215.494C69.5069 218.873 108.044 216.792 145.237 208.784C149.28 207.929 152.402 204.665 151.948 200.468C151.647 196.673 147.675 192.901 143.632 193.756C107.644 201.304 70.6175 203.727 33.7566 200.567C28.5742 200.248 22.6714 205.265 25.4984 210.855C47.2523 254.523 80.8057 291.15 122.588 316.81C125.946 318.977 131.135 316.303 132.622 312.974C134.204 308.689 132.145 305.106 128.509 302.816Z" fill="#9CCC44"/>
</svg>
