<svg xmlns="http://www.w3.org/2000/svg" viewBox="0 0 169.42 218.53"><defs><style>.cls-1{fill:#4db9ca;}.cls-2{fill:#ff7d1f;}.cls-3{fill:none;}.cls-4{fill:#fc478e;}.cls-5{fill:#984efd;}.cls-6{fill:#9ccc44;}</style></defs><g id="Capa_2" data-name="Capa 2"><g id="Capa_1-2" data-name="Capa 1"><path class="cls-1" d="M87.58,120.88a21.77,21.77,0,0,1,10-18.33,16.08,16.08,0,0,1-.9-16.78H20.78c0,.08,0,.17,0,.25a63.61,63.61,0,0,0,63.61,63.62c1.08,0,2.14,0,3.2-.09Z"/><path class="cls-2" d="M106.07,66.25a15.43,15.43,0,0,1,2.1-7.78l-19-17.91a6.92,6.92,0,0,0-9.49,0L58,60.93,31.58,85.77H96.7a16,16,0,0,1,14.07-8.38A15.51,15.51,0,0,1,106.07,66.25Z"/><path class="cls-3" d="M84.16,22.19a63.61,63.61,0,0,0-63.6,63.36H147.77A63.62,63.62,0,0,0,84.16,22.19Z"/><path class="cls-4" d="M133.31,97h2.19a13.63,13.63,0,0,1,13.63,13.63V129a0,0,0,0,1,0,0H119.68a0,0,0,0,1,0,0V110.61A13.63,13.63,0,0,1,133.31,97Z"/><path class="cls-4" d="M109.31,103.8h1.48a17.75,17.75,0,0,1,17.75,17.75v25.53a0,0,0,0,1,0,0h-37a0,0,0,0,1,0,0V121.55A17.75,17.75,0,0,1,109.31,103.8Z"/><circle class="cls-4" cx="121.41" cy="66.03" r="10.82"/><circle class="cls-4" cx="110.59" cy="93.22" r="11.41"/><path class="cls-1" d="M84.71,0h-.18A84.48,84.48,0,0,0,30,20L45.41,35.58a63.3,63.3,0,0,1,39-13.39h0c14.69,0,29.14,5.73,39.91,14.1l15.68-15.77C125.33,8.19,105.44,0,84.71,0Z"/><circle class="cls-4" cx="134.41" cy="88.7" r="10.03"/><path class="cls-5" d="M45.41,35.58,30,20A84.17,84.17,0,0,0,0,84.48c0,.45,0,.89,0,1.33H20.83A63.49,63.49,0,0,1,45.41,35.58Z"/><polygon class="cls-2" points="29.96 20.03 29.95 20.02 29.95 20.02 29.96 20.03 29.96 20.03"/><path class="cls-5" d="M140.05,20.52,124.37,36.29A63.5,63.5,0,0,1,148,84.93h21.38v-.45A84.18,84.18,0,0,0,140.05,20.52Z"/><path class="cls-1" d="M20.83,85.81H0c.33,21.86,8.91,39.75,23.11,56.69l22.47,29,13.89-14V137.36C37.15,129.31,20.83,111.23,20.83,85.81Z"/><path class="cls-4" d="M148,84.93c0,.29,0,.58,0,.88a58.17,58.17,0,0,1-6,26.69C132.41,131.34,112.14,142,87.12,142a81.82,81.82,0,0,1-27.63-4.68V157.5l-13.89,14L52.94,181l27.4,35.39a5.52,5.52,0,0,0,8.74,0L116.48,181l29.81-38.5c3.56-4.88,6.94-9.81,10-14.88,7.7-12.91,13.06-26.7,13.16-42.69Z"/><path class="cls-5" d="M59.34,110.48a8.82,8.82,0,1,0-4.91,0v26.22l4.07,2.83V156.3L44.2,169l3.09,3.82,16.12-14.67V136.25l-4.07-3.34Zm-2.51-4.65a3.8,3.8,0,1,1,3.8-3.8A3.8,3.8,0,0,1,56.83,105.83Z"/><path class="cls-5" d="M28.73,94.48a8.82,8.82,0,0,0-2.23,17.35v13.93l-9.87,8.9,2.73,3.73,12.05-10.7v-16a8.82,8.82,0,0,0-2.68-17.22Zm0,12.62a3.8,3.8,0,1,1,3.8-3.8A3.8,3.8,0,0,1,28.73,107.1Z"/><path class="cls-5" d="M43.13,117.51a7.58,7.58,0,0,0-2.46,14.75v13.07l-9.31,7.52,3,3.89,11.21-9.57V132.26a7.58,7.58,0,0,0-2.45-14.75Zm0,10.84a3.27,3.27,0,1,1,3.26-3.26A3.26,3.26,0,0,1,43.13,128.35Z"/><path class="cls-6" d="M28.68,39.1c12.59,7.5,18,20.51,14.43,30.06-2.35,6.22-8,9.47-10.63,10.78a17.43,17.43,0,0,1-12-.28c-7-3-11.39-11.56-10.31-21a20.92,20.92,0,0,1,6.41,1.26,25.89,25.89,0,0,1,6,3.34,63.78,63.78,0,0,1,7,5.44c-1.4-1.53-4.1-3.91-5.61-7.69a21.24,21.24,0,0,1-.8-13.22A17.82,17.82,0,0,1,28.68,39.1Z"/><path class="cls-5" d="M30.13,61.83c-.76,1.17-1.41,2.2-1.92,3a.54.54,0,0,1-.81.12,14.8,14.8,0,0,1-4.91-12.5L13.87,59.1a15.13,15.13,0,0,1,5.75,2.72,15.87,15.87,0,0,1,5.54,8.73c.45,1.78.44,3.62.42,7.32,0,3.22-.29,6.09-.45,7.9h3.92a36.37,36.37,0,0,1,0-7.07,38,38,0,0,1,1.58-7.82A31.52,31.52,0,0,1,33,64.64c1.23-2.33,2.41-3.6,1.88-4.6a2.21,2.21,0,0,0-2.3-.83C31.73,59.38,31.31,60,30.13,61.83Z"/></g></g></svg>