<svg xmlns="http://www.w3.org/2000/svg" viewBox="0 0 32.29 52.45"><defs><style>.cls-1{fill:#984efd;}</style></defs><g id="Capa_2" data-name="Capa 2"><g id="Capa_2-2" data-name="Capa 2"><path class="cls-1" d="M28.13,11.37a5.81,5.81,0,1,0-3.23,0V28.67l2.68,1.86v11l-9.42,8.37,2,2.52,10.63-9.67V28.35l-2.69-2.2ZM26.48,8.31A2.5,2.5,0,1,1,29,5.81,2.5,2.5,0,0,1,26.48,8.31Z"/><path class="cls-1" d="M8,.84A5.8,5.8,0,0,0,6.5,12.26v9.18L0,27.3l1.8,2.46,7.94-7V12.17A5.8,5.8,0,0,0,8,.84Zm0,8.3a2.5,2.5,0,1,1,2.5-2.5A2.5,2.5,0,0,1,8,9.14Z"/><path class="cls-1" d="M17.45,16a5,5,0,0,0-1.62,9.72v8.61l-6.13,5,2,2.57,7.38-6.31V25.72A5,5,0,0,0,17.45,16Zm0,7.15A2.16,2.16,0,1,1,19.6,21,2.16,2.16,0,0,1,17.45,23.15Z"/></g></g></svg>